<?xml version="1.0" standalone="no"?>
<!DOCTYPE svg PUBLIC "-//W3C//DTD SVG 20010904//EN"
 "http://www.w3.org/TR/2001/REC-SVG-20010904/DTD/svg10.dtd">
<svg version="1.0" xmlns="http://www.w3.org/2000/svg"
 width="500.000000pt" height="500.000000pt" viewBox="0 0 500.000000 500.000000"
 preserveAspectRatio="xMidYMid meet">

<g transform="translate(0.000000,500.000000) scale(0.100000,-0.100000)"
fill="#000000" stroke="none">
<path d="M0 2500 l0 -2500 2500 0 2500 0 0 2500 0 2500 -2500 0 -2500 0 0
-2500z m2715 2469 c589 -51 1134 -306 1548 -722 582 -586 832 -1398 682 -2212
-184 -997 -984 -1795 -1984 -1981 -715 -132 -1445 52 -2012 508 -971 781
-1213 2165 -564 3224 277 453 694 808 1183 1009 359 147 762 208 1147 174z"/>
<path d="M970 1531 l-25 -7 -6 -214 c-10 -356 4 -436 85 -474 44 -21 183 -22
231 -2 32 14 35 19 35 55 0 22 -5 52 -10 67 -10 26 -11 26 -79 20 -93 -9 -100
-1 -103 112 -2 95 0 144 7 150 2 2 39 7 82 11 l78 6 0 65 0 65 -77 5 c-42 3
-80 9 -85 13 -4 5 -10 36 -13 70 l-5 62 -45 2 c-25 1 -56 -2 -70 -6z m93 -82
c3 -34 10 -66 15 -71 9 -9 37 -12 140 -17 19 -1 22 -7 22 -40 0 -39 -1 -40
-42 -45 -24 -3 -61 -7 -83 -8 l-40 -3 -3 -125 c-4 -181 12 -207 119 -195 56 7
58 6 64 -18 11 -42 2 -61 -35 -74 -90 -31 -196 0 -235 67 -17 30 -21 57 -24
175 -1 77 0 199 4 272 8 142 6 139 66 142 25 1 26 -2 32 -60z"/>
<path d="M2325 1531 l-30 -6 0 -302 c0 -289 1 -303 21 -329 41 -56 69 -69 157
-72 51 -2 97 2 122 10 40 13 40 14 40 65 -1 74 -15 86 -91 78 -85 -9 -93 1
-96 113 -2 95 0 144 7 150 2 2 39 7 82 11 l78 6 0 65 0 65 -77 5 c-42 3 -80 9
-85 13 -4 5 -10 36 -13 70 l-5 62 -40 2 c-22 0 -53 -2 -70 -6z m90 -78 c4 -32
8 -63 10 -69 2 -7 34 -13 79 -16 41 -2 78 -7 82 -11 9 -9 10 -65 0 -74 -4 -4
-41 -10 -84 -13 l-77 -5 -3 -115 c-5 -185 15 -218 120 -204 56 8 68 -1 68 -49
0 -39 -52 -60 -137 -55 -71 4 -106 25 -138 79 -18 31 -20 55 -23 264 -2 127
-1 249 3 272 6 43 15 50 67 52 25 1 27 -2 33 -56z"/>
<path d="M3800 1531 l-25 -7 -6 -214 c-10 -356 4 -436 85 -474 44 -21 183 -22
231 -2 32 14 35 19 35 55 0 22 -5 52 -10 67 -10 26 -11 26 -79 20 -93 -9 -100
-1 -103 112 -2 95 0 144 7 150 2 2 39 7 82 11 l78 6 0 65 0 65 -77 5 c-42 3
-80 9 -85 13 -4 5 -10 36 -13 70 l-5 62 -45 2 c-25 1 -56 -2 -70 -6z m94 -53
c3 -18 7 -49 8 -68 l3 -35 78 -6 c79 -5 97 -14 97 -51 0 -34 -28 -48 -101 -48
-65 0 -69 -1 -75 -26 -4 -14 -4 -77 -2 -140 4 -102 7 -117 26 -137 19 -19 32
-22 84 -20 67 3 78 -4 78 -50 0 -23 -7 -31 -35 -43 -19 -7 -57 -14 -85 -14
-87 0 -145 37 -169 109 -12 36 -16 486 -5 528 6 23 21 30 66 32 23 1 28 -4 32
-31z"/>
<path d="M1415 1371 c-96 -55 -129 -132 -123 -287 3 -91 6 -105 33 -150 19
-30 49 -60 79 -79 46 -28 57 -30 160 -33 73 -2 125 1 151 10 38 12 40 15 43
60 2 26 -2 57 -8 69 -11 20 -16 20 -106 14 -105 -8 -143 1 -169 41 -8 13 -15
26 -15 29 0 3 55 5 123 6 67 0 140 3 162 7 l40 8 0 89 c0 111 -25 172 -88 213
-36 24 -52 27 -136 30 -91 3 -99 1 -146 -27z m246 -24 c52 -28 95 -103 104
-182 9 -79 8 -79 -172 -85 -149 -5 -158 -6 -161 -25 -2 -12 8 -36 20 -55 34
-50 89 -66 190 -54 85 10 88 8 88 -45 0 -35 -31 -51 -120 -58 -190 -16 -315
107 -296 291 11 107 62 184 146 223 46 21 152 16 201 -10z"/>
<path d="M1478 1263 c-31 -20 -53 -56 -44 -72 5 -7 47 -11 112 -11 96 0 104 1
104 19 0 33 -11 51 -41 66 -37 20 -97 19 -131 -2z m133 -39 l22 -24 -87 0
c-81 0 -87 1 -75 17 20 23 66 41 94 35 13 -2 34 -15 46 -28z"/>
<path d="M1925 1386 c-16 -7 -43 -28 -60 -45 -28 -30 -30 -39 -34 -117 l-3
-84 38 -39 c26 -25 60 -45 104 -60 83 -27 94 -35 86 -56 -6 -18 -46 -18 -173
1 -40 6 -43 4 -53 -21 -5 -14 -10 -46 -10 -71 0 -42 2 -46 35 -60 23 -9 71
-14 142 -14 180 0 233 42 233 185 0 76 -1 78 -37 115 -25 24 -60 44 -103 59
-83 27 -94 35 -86 56 6 15 16 17 91 10 l85 -7 10 27 c16 41 12 101 -6 116 -24
20 -219 24 -259 5z m236 -33 c7 -7 9 -25 5 -47 l-7 -36 -74 7 c-60 5 -79 3
-100 -11 -53 -35 -19 -80 89 -116 78 -26 99 -41 120 -84 36 -75 9 -157 -64
-200 -28 -17 -53 -21 -125 -21 -55 0 -103 5 -124 14 -31 14 -33 17 -28 53 3
22 8 42 11 46 3 3 29 0 57 -6 104 -24 169 -9 169 39 0 33 -18 46 -107 79 -35
12 -74 34 -88 47 -70 71 -44 196 50 239 37 17 198 15 216 -3z"/>
<path d="M3325 1371 c-96 -55 -129 -134 -123 -289 3 -89 6 -103 33 -148 19
-30 49 -60 79 -79 46 -28 57 -30 160 -33 73 -2 125 1 151 10 38 12 40 15 43
60 2 26 -2 57 -8 69 -11 20 -16 20 -106 14 -105 -8 -143 1 -169 41 -8 13 -15
26 -15 29 0 3 55 5 123 6 67 0 140 3 162 7 l40 7 3 84 c3 74 0 91 -24 138 -17
36 -39 63 -67 81 -36 24 -52 27 -136 30 -91 3 -99 1 -146 -27z m196 -2 c68
-15 122 -67 143 -140 19 -63 21 -120 4 -137 -8 -8 -58 -12 -157 -12 -81 0
-152 -4 -159 -9 -18 -11 -6 -53 23 -85 34 -36 95 -50 182 -39 l72 9 11 -27
c25 -59 -27 -89 -151 -89 -82 0 -148 22 -191 64 -58 56 -73 99 -73 201 0 81 3
95 30 144 35 64 79 100 143 117 60 16 61 16 123 3z"/>
<path d="M3393 1261 c-17 -11 -36 -28 -42 -39 -19 -36 0 -43 105 -40 91 3 99
5 102 23 8 57 -104 94 -165 56z m128 -37 l22 -24 -87 0 c-81 0 -87 1 -75 17
20 23 66 41 94 35 13 -2 34 -15 46 -28z"/>
<path d="M2725 1376 l-40 -12 0 -264 0 -265 70 0 70 0 7 40 c4 22 7 101 7 175
-1 211 -6 190 44 190 76 0 81 -13 88 -217 4 -96 11 -179 16 -184 6 -6 39 -9
74 -7 l64 3 8 45 c10 53 1 318 -12 374 -13 51 -39 86 -87 113 -34 20 -53 23
-154 22 -63 0 -133 -6 -155 -13z m281 -31 c41 -17 80 -70 93 -125 15 -65 14
-343 -1 -358 -16 -16 -70 -16 -86 0 -8 8 -12 58 -12 157 0 160 -10 213 -43
236 -26 18 -118 20 -135 3 -8 -8 -12 -67 -12 -198 0 -131 -4 -190 -12 -198
-16 -16 -70 -16 -86 0 -13 13 -18 411 -6 455 7 25 25 33 104 44 66 9 154 2
196 -16z"/>
</g>
</svg>
